<svg width="442" height="109" viewBox="0 0 442 109" fill="none" xmlns="http://www.w3.org/2000/svg">
<path d="M59.5977 0.873047H67.5803V34.9505H59.5977V0.873047Z" fill="#212121"/>
<path d="M96.3032 28.1379V34.9505H78.7305V0.873047H86.6147V28.1379H96.3032Z" fill="#212121"/>
<path d="M122.991 28.1379V34.9505H105.418V0.873047H113.302V28.1379H122.991Z" fill="#212121"/>
<path d="M139.993 7.20083V14.9392H152.893V21.1212H139.993V28.6191H152.893V34.9468H132.105V0.873047H152.893V7.20083H139.993Z" fill="#212121"/>
<path d="M176.256 0.873047C187.548 0.873047 193.974 9.19831 193.974 17.9136C193.974 26.6289 187.599 34.9505 176.256 34.9505H163.746V0.873047H176.256ZM171.63 7.68927V28.1343H175.866C182.245 28.1343 185.944 23.1697 185.944 17.9099C185.944 12.6502 182.245 7.68927 175.866 7.68927H171.63Z" fill="#212121"/>
<path d="M201.723 17.9154C201.723 8.56948 208.44 0 219.784 0C231.127 0 237.794 8.56948 237.794 17.9154C237.794 27.2612 231.076 35.8307 219.784 35.8307C208.491 35.8307 201.723 27.2612 201.723 17.9154ZM229.764 17.9154C229.764 12.3166 225.966 7.11147 219.784 7.11147C213.602 7.11147 209.804 12.3202 209.804 17.9154C209.804 23.5105 213.551 28.7229 219.784 28.7229C226.017 28.7229 229.764 23.5141 229.764 17.9154Z" fill="#212121"/>
<path d="M267.797 23.0713V0.873047H275.638V34.9505H267.407L255.138 13.0475V34.9505H247.254V0.873047H255.481L267.797 23.0713Z" fill="#212121"/>
<path d="M286.793 0.873047H294.776V34.9505H286.793V0.873047Z" fill="#212121"/>
<path d="M1.8 53.7536H11.616V55.9856H4.536V60.9056H10.056V63.1376H4.536V70.4336H1.8V53.7536ZM14.2236 70.4336V57.2096H16.9596V70.4336H14.2236ZM15.6156 55.4576C15.0396 55.4576 14.5516 55.2736 14.1516 54.9056C13.7516 54.5376 13.5516 54.0816 13.5516 53.5376C13.5516 52.9936 13.7516 52.5376 14.1516 52.1696C14.5516 51.7856 15.0396 51.5936 15.6156 51.5936C16.1756 51.5936 16.6556 51.7856 17.0556 52.1696C17.4716 52.5376 17.6796 52.9936 17.6796 53.5376C17.6796 54.0816 17.4716 54.5376 17.0556 54.9056C16.6556 55.2736 16.1756 55.4576 15.6156 55.4576ZM20.6906 70.4336V57.2096H23.4266V59.9696C23.6346 59.4096 23.9626 58.9136 24.4106 58.4816C24.8586 58.0336 25.3706 57.6816 25.9466 57.4256C26.5386 57.1696 27.1306 57.0416 27.7226 57.0416C28.7306 57.0416 29.6106 57.2656 30.3626 57.7136C31.1306 58.1456 31.7226 58.7776 32.1386 59.6096C32.5706 60.4416 32.7866 61.4496 32.7866 62.6336V70.4336H30.0746V63.2816C30.0746 62.0816 29.7706 61.1376 29.1626 60.4496C28.5546 59.7616 27.7546 59.4176 26.7626 59.4176C26.1226 59.4176 25.5466 59.5936 25.0346 59.9456C24.5386 60.2976 24.1466 60.7856 23.8586 61.4096C23.5706 62.0176 23.4266 62.7216 23.4266 63.5216V70.4336H20.6906ZM41.5566 70.6016C40.4046 70.6016 39.3566 70.3216 38.4126 69.7616C37.4846 69.1856 36.7406 68.3936 36.1806 67.3856C35.6366 66.3616 35.3646 65.1696 35.3646 63.8096C35.3646 62.4496 35.6366 61.2656 36.1806 60.2576C36.7406 59.2336 37.4846 58.4416 38.4126 57.8816C39.3566 57.3216 40.4046 57.0416 41.5566 57.0416C42.6446 57.0416 43.5966 57.3136 44.4126 57.8576C45.2286 58.3856 45.8206 59.1216 46.1886 60.0656V52.6736H48.9486V70.4336H47.7246C47.2766 70.4336 46.9086 70.2896 46.6206 70.0016C46.3326 69.7136 46.1886 69.3456 46.1886 68.8976V67.5536C45.8206 68.4976 45.2286 69.2416 44.4126 69.7856C43.5966 70.3296 42.6446 70.6016 41.5566 70.6016ZM42.1806 68.2256C42.8686 68.2256 43.5166 68.0576 44.1246 67.7216C44.7326 67.3856 45.2286 66.8896 45.6126 66.2336C45.9966 65.5616 46.1886 64.7536 46.1886 63.8096C46.1886 62.8496 45.9966 62.0496 45.6126 61.4096C45.2286 60.7536 44.7326 60.2576 44.1246 59.9216C43.5166 59.5856 42.8686 59.4176 42.1806 59.4176C41.5086 59.4176 40.8606 59.5856 40.2366 59.9216C39.6286 60.2576 39.1326 60.7536 38.7486 61.4096C38.3646 62.0496 38.1726 62.8496 38.1726 63.8096C38.1726 64.7536 38.3646 65.5616 38.7486 66.2336C39.1326 66.8896 39.6286 67.3856 40.2366 67.7216C40.8606 68.0576 41.5086 68.2256 42.1806 68.2256ZM52.6142 70.4336V57.2096H55.3502V70.4336H52.6142ZM54.0062 55.4576C53.4302 55.4576 52.9422 55.2736 52.5422 54.9056C52.1422 54.5376 51.9422 54.0816 51.9422 53.5376C51.9422 52.9936 52.1422 52.5376 52.5422 52.1696C52.9422 51.7856 53.4302 51.5936 54.0062 51.5936C54.5662 51.5936 55.0462 51.7856 55.4462 52.1696C55.8622 52.5376 56.0702 52.9936 56.0702 53.5376C56.0702 54.0816 55.8622 54.5376 55.4462 54.9056C55.0462 55.2736 54.5662 55.4576 54.0062 55.4576ZM59.0813 70.4336V57.2096H61.8173V59.9696C62.0253 59.4096 62.3533 58.9136 62.8013 58.4816C63.2493 58.0336 63.7613 57.6816 64.3372 57.4256C64.9293 57.1696 65.5213 57.0416 66.1133 57.0416C67.1213 57.0416 68.0013 57.2656 68.7533 57.7136C69.5213 58.1456 70.1133 58.7776 70.5293 59.6096C70.9613 60.4416 71.1773 61.4496 71.1773 62.6336V70.4336H68.4653V63.2816C68.4653 62.0816 68.1613 61.1376 67.5533 60.4496C66.9453 59.7616 66.1453 59.4176 65.1533 59.4176C64.5133 59.4176 63.9373 59.5936 63.4253 59.9456C62.9293 60.2976 62.5373 60.7856 62.2493 61.4096C61.9613 62.0176 61.8173 62.7216 61.8173 63.5216V70.4336H59.0813ZM80.7872 76.8896C79.7152 76.8896 78.7232 76.7216 77.8112 76.3856C76.9152 76.0496 76.1392 75.5536 75.4832 74.8976C74.8272 74.2416 74.3312 73.4416 73.9952 72.4976L76.4912 71.4896C76.8592 72.4176 77.4352 73.1456 78.2192 73.6736C79.0032 74.2176 79.8592 74.4896 80.7872 74.4896C81.5392 74.4896 82.1952 74.3456 82.7552 74.0576C83.3312 73.7696 83.7792 73.3376 84.0992 72.7616C84.4192 72.1856 84.5792 71.4736 84.5792 70.6256V67.5536C84.2112 68.4976 83.6192 69.2416 82.8032 69.7856C81.9872 70.3296 81.0352 70.6016 79.9472 70.6016C78.7952 70.6016 77.7472 70.3216 76.8032 69.7616C75.8752 69.1856 75.1312 68.3936 74.5712 67.3856C74.0272 66.3616 73.7552 65.1696 73.7552 63.8096C73.7552 62.4496 74.0272 61.2656 74.5712 60.2576C75.1312 59.2336 75.8752 58.4416 76.8032 57.8816C77.7472 57.3216 78.7952 57.0416 79.9472 57.0416C81.0352 57.0416 81.9872 57.3136 82.8032 57.8576C83.6192 58.3856 84.2112 59.1216 84.5792 60.0656V57.2096H87.3392V70.5776C87.3392 71.5056 87.1872 72.3536 86.8832 73.1216C86.5952 73.8896 86.1712 74.5536 85.6112 75.1136C85.0512 75.6736 84.3632 76.1056 83.5472 76.4096C82.7472 76.7296 81.8272 76.8896 80.7872 76.8896ZM80.5712 68.2256C81.2592 68.2256 81.9072 68.0576 82.5152 67.7216C83.1232 67.3856 83.6192 66.8896 84.0032 66.2336C84.3872 65.5616 84.5792 64.7536 84.5792 63.8096C84.5792 62.8496 84.3872 62.0496 84.0032 61.4096C83.6192 60.7536 83.1232 60.2576 82.5152 59.9216C81.9072 59.5856 81.2592 59.4176 80.5712 59.4176C79.8992 59.4176 79.2512 59.5856 78.6272 59.9216C78.0192 60.2576 77.5232 60.7536 77.1392 61.4096C76.7552 62.0496 76.5632 62.8496 76.5632 63.8096C76.5632 64.7536 76.7552 65.5616 77.1392 66.2336C77.5232 66.8896 78.0192 67.3856 78.6272 67.7216C79.2512 68.0576 79.8992 68.2256 80.5712 68.2256ZM102.447 70.6016C101.295 70.6016 100.247 70.3216 99.3032 69.7616C98.3752 69.1856 97.6312 68.3936 97.0712 67.3856C96.5272 66.3616 96.2552 65.1696 96.2552 63.8096C96.2552 62.4496 96.5272 61.2656 97.0712 60.2576C97.6312 59.2336 98.3752 58.4416 99.3032 57.8816C100.247 57.3216 101.295 57.0416 102.447 57.0416C103.535 57.0416 104.487 57.3136 105.303 57.8576C106.119 58.3856 106.711 59.1216 107.079 60.0656V57.2096H109.839V70.4336H108.615C108.167 70.4336 107.799 70.2896 107.511 70.0016C107.223 69.7136 107.079 69.3456 107.079 68.8976V67.5536C106.711 68.4976 106.119 69.2416 105.303 69.7856C104.487 70.3296 103.535 70.6016 102.447 70.6016ZM103.071 68.2256C103.759 68.2256 104.407 68.0576 105.015 67.7216C105.623 67.3856 106.119 66.8896 106.503 66.2336C106.887 65.5616 107.079 64.7536 107.079 63.8096C107.079 62.8496 106.887 62.0496 106.503 61.4096C106.119 60.7536 105.623 60.2576 105.015 59.9216C104.407 59.5856 103.759 59.4176 103.071 59.4176C102.399 59.4176 101.751 59.5856 101.127 59.9216C100.519 60.2576 100.023 60.7536 99.6392 61.4096C99.2552 62.0496 99.0632 62.8496 99.0632 63.8096C99.0632 64.7536 99.2552 65.5616 99.6392 66.2336C100.023 66.8896 100.519 67.3856 101.127 67.7216C101.751 68.0576 102.399 68.2256 103.071 68.2256ZM113.433 70.4336V57.2096H116.169V59.9696C116.377 59.4096 116.705 58.9136 117.153 58.4816C117.601 58.0336 118.113 57.6816 118.689 57.4256C119.281 57.1696 119.873 57.0416 120.465 57.0416C121.473 57.0416 122.353 57.2656 123.105 57.7136C123.873 58.1456 124.465 58.7776 124.881 59.6096C125.313 60.4416 125.529 61.4496 125.529 62.6336V70.4336H122.817V63.2816C122.817 62.0816 122.513 61.1376 121.905 60.4496C121.297 59.7616 120.497 59.4176 119.505 59.4176C118.865 59.4176 118.289 59.5936 117.777 59.9456C117.281 60.2976 116.889 60.7856 116.601 61.4096C116.313 62.0176 116.169 62.7216 116.169 63.5216V70.4336H113.433ZM134.299 70.6016C133.147 70.6016 132.099 70.3216 131.155 69.7616C130.227 69.1856 129.483 68.3936 128.923 67.3856C128.379 66.3616 128.107 65.1696 128.107 63.8096C128.107 62.4496 128.379 61.2656 128.923 60.2576C129.483 59.2336 130.227 58.4416 131.155 57.8816C132.099 57.3216 133.147 57.0416 134.299 57.0416C135.387 57.0416 136.339 57.3136 137.155 57.8576C137.971 58.3856 138.563 59.1216 138.931 60.0656V52.6736H141.691V70.4336H140.467C140.019 70.4336 139.651 70.2896 139.363 70.0016C139.075 69.7136 138.931 69.3456 138.931 68.8976V67.5536C138.563 68.4976 137.971 69.2416 137.155 69.7856C136.339 70.3296 135.387 70.6016 134.299 70.6016ZM134.923 68.2256C135.611 68.2256 136.259 68.0576 136.867 67.7216C137.475 67.3856 137.971 66.8896 138.355 66.2336C138.739 65.5616 138.931 64.7536 138.931 63.8096C138.931 62.8496 138.739 62.0496 138.355 61.4096C137.971 60.7536 137.475 60.2576 136.867 59.9216C136.259 59.5856 135.611 59.4176 134.923 59.4176C134.251 59.4176 133.603 59.5856 132.979 59.9216C132.371 60.2576 131.875 60.7536 131.491 61.4096C131.107 62.0496 130.915 62.8496 130.915 63.8096C130.915 64.7536 131.107 65.5616 131.491 66.2336C131.875 66.8896 132.371 67.3856 132.979 67.7216C133.603 68.0576 134.251 68.2256 134.923 68.2256ZM156.103 70.6016C155.175 70.6016 154.343 70.4416 153.607 70.1216C152.871 69.7856 152.263 69.3376 151.783 68.7776C151.303 68.2176 150.975 67.6096 150.799 66.9536L153.415 66.3776C153.575 66.9696 153.895 67.4416 154.375 67.7936C154.871 68.1296 155.431 68.2976 156.055 68.2976C156.855 68.2976 157.455 68.1536 157.855 67.8656C158.271 67.5616 158.479 67.1856 158.479 66.7376C158.479 66.3056 158.295 65.9696 157.927 65.7296C157.559 65.4896 157.079 65.2896 156.487 65.1296C155.911 64.9696 155.295 64.8016 154.639 64.6256C153.983 64.4496 153.359 64.2176 152.767 63.9296C152.191 63.6416 151.719 63.2576 151.351 62.7776C150.983 62.2816 150.799 61.6336 150.799 60.8336C150.799 60.1296 151.007 59.4896 151.423 58.9136C151.839 58.3376 152.423 57.8816 153.175 57.5456C153.943 57.2096 154.847 57.0416 155.887 57.0416C156.783 57.0416 157.575 57.1856 158.263 57.4736C158.951 57.7616 159.519 58.1696 159.967 58.6976C160.415 59.2096 160.719 59.8256 160.879 60.5456L158.263 61.2176C158.103 60.6096 157.823 60.1456 157.423 59.8256C157.023 59.5056 156.479 59.3456 155.791 59.3456C155.055 59.3456 154.495 59.4816 154.111 59.7536C153.743 60.0096 153.559 60.3616 153.559 60.8096C153.559 61.2416 153.743 61.5856 154.111 61.8416C154.479 62.0816 154.951 62.2896 155.527 62.4656C156.103 62.6256 156.711 62.7936 157.351 62.9696C158.007 63.1456 158.623 63.3776 159.199 63.6656C159.775 63.9376 160.247 64.3216 160.615 64.8176C160.983 65.2976 161.167 65.9296 161.167 66.7136C161.167 67.4016 160.959 68.0416 160.543 68.6336C160.143 69.2256 159.559 69.7056 158.791 70.0736C158.039 70.4256 157.143 70.6016 156.103 70.6016ZM164.128 70.4336V52.6736H166.864V59.9696C167.072 59.4096 167.4 58.9136 167.848 58.4816C168.296 58.0336 168.808 57.6816 169.384 57.4256C169.976 57.1696 170.568 57.0416 171.16 57.0416C172.168 57.0416 173.048 57.2656 173.8 57.7136C174.568 58.1456 175.16 58.7776 175.576 59.6096C176.008 60.4416 176.224 61.4496 176.224 62.6336V70.4336H173.512V63.2816C173.512 62.0816 173.208 61.1376 172.6 60.4496C171.992 59.7616 171.192 59.4176 170.2 59.4176C169.56 59.4176 168.984 59.5936 168.472 59.9456C167.976 60.2976 167.584 60.7856 167.296 61.4096C167.008 62.0176 166.864 62.7216 166.864 63.5216V70.4336H164.128ZM184.994 70.6016C183.842 70.6016 182.794 70.3216 181.85 69.7616C180.922 69.1856 180.178 68.3936 179.618 67.3856C179.074 66.3616 178.802 65.1696 178.802 63.8096C178.802 62.4496 179.074 61.2656 179.618 60.2576C180.178 59.2336 180.922 58.4416 181.85 57.8816C182.794 57.3216 183.842 57.0416 184.994 57.0416C186.082 57.0416 187.034 57.3136 187.85 57.8576C188.666 58.3856 189.258 59.1216 189.626 60.0656V57.2096H192.386V70.4336H191.162C190.714 70.4336 190.346 70.2896 190.058 70.0016C189.77 69.7136 189.626 69.3456 189.626 68.8976V67.5536C189.258 68.4976 188.666 69.2416 187.85 69.7856C187.034 70.3296 186.082 70.6016 184.994 70.6016ZM185.618 68.2256C186.306 68.2256 186.954 68.0576 187.562 67.7216C188.17 67.3856 188.666 66.8896 189.05 66.2336C189.434 65.5616 189.626 64.7536 189.626 63.8096C189.626 62.8496 189.434 62.0496 189.05 61.4096C188.666 60.7536 188.17 60.2576 187.562 59.9216C186.954 59.5856 186.306 59.4176 185.618 59.4176C184.946 59.4176 184.298 59.5856 183.674 59.9216C183.066 60.2576 182.57 60.7536 182.186 61.4096C181.802 62.0496 181.61 62.8496 181.61 63.8096C181.61 64.7536 181.802 65.5616 182.186 66.2336C182.57 66.8896 183.066 67.3856 183.674 67.7216C184.298 68.0576 184.946 68.2256 185.618 68.2256ZM195.98 70.4336V57.2096H198.716V70.4336H195.98ZM197.924 63.7616L198.716 60.1136C199.036 59.1696 199.556 58.4256 200.276 57.8816C201.012 57.3216 201.844 57.0416 202.772 57.0416V59.8736C202.644 59.8416 202.516 59.8256 202.388 59.8256C202.276 59.8096 202.156 59.8016 202.028 59.8016C201.372 59.8016 200.796 59.9536 200.3 60.2576C199.804 60.5456 199.412 60.9856 199.124 61.5776C198.852 62.1536 198.716 62.8816 198.716 63.7616H197.924ZM205.356 70.4336V57.2096H208.092V70.4336H205.356ZM206.748 55.4576C206.172 55.4576 205.684 55.2736 205.284 54.9056C204.884 54.5376 204.684 54.0816 204.684 53.5376C204.684 52.9936 204.884 52.5376 205.284 52.1696C205.684 51.7856 206.172 51.5936 206.748 51.5936C207.308 51.5936 207.788 51.7856 208.188 52.1696C208.604 52.5376 208.812 52.9936 208.812 53.5376C208.812 54.0816 208.604 54.5376 208.188 54.9056C207.788 55.2736 207.308 55.4576 206.748 55.4576ZM211.823 70.4336V57.2096H214.559V59.9696C214.767 59.4096 215.095 58.9136 215.543 58.4816C215.991 58.0336 216.503 57.6816 217.079 57.4256C217.671 57.1696 218.263 57.0416 218.855 57.0416C219.863 57.0416 220.743 57.2656 221.495 57.7136C222.263 58.1456 222.855 58.7776 223.271 59.6096C223.703 60.4416 223.919 61.4496 223.919 62.6336V70.4336H221.207V63.2816C221.207 62.0816 220.903 61.1376 220.295 60.4496C219.687 59.7616 218.887 59.4176 217.895 59.4176C217.255 59.4176 216.679 59.5936 216.167 59.9456C215.671 60.2976 215.279 60.7856 214.991 61.4096C214.703 62.0176 214.559 62.7216 214.559 63.5216V70.4336H211.823ZM233.529 76.8896C232.457 76.8896 231.465 76.7216 230.553 76.3856C229.657 76.0496 228.881 75.5536 228.225 74.8976C227.569 74.2416 227.073 73.4416 226.737 72.4976L229.233 71.4896C229.601 72.4176 230.177 73.1456 230.961 73.6736C231.745 74.2176 232.601 74.4896 233.529 74.4896C234.281 74.4896 234.937 74.3456 235.497 74.0576C236.073 73.7696 236.521 73.3376 236.841 72.7616C237.161 72.1856 237.321 71.4736 237.321 70.6256V67.5536C236.953 68.4976 236.361 69.2416 235.545 69.7856C234.729 70.3296 233.777 70.6016 232.689 70.6016C231.537 70.6016 230.489 70.3216 229.545 69.7616C228.617 69.1856 227.873 68.3936 227.313 67.3856C226.769 66.3616 226.497 65.1696 226.497 63.8096C226.497 62.4496 226.769 61.2656 227.313 60.2576C227.873 59.2336 228.617 58.4416 229.545 57.8816C230.489 57.3216 231.537 57.0416 232.689 57.0416C233.777 57.0416 234.729 57.3136 235.545 57.8576C236.361 58.3856 236.953 59.1216 237.321 60.0656V57.2096H240.081V70.5776C240.081 71.5056 239.929 72.3536 239.625 73.1216C239.337 73.8896 238.913 74.5536 238.353 75.1136C237.793 75.6736 237.105 76.1056 236.289 76.4096C235.489 76.7296 234.569 76.8896 233.529 76.8896ZM233.313 68.2256C234.001 68.2256 234.649 68.0576 235.257 67.7216C235.865 67.3856 236.361 66.8896 236.745 66.2336C237.129 65.5616 237.321 64.7536 237.321 63.8096C237.321 62.8496 237.129 62.0496 236.745 61.4096C236.361 60.7536 235.865 60.2576 235.257 59.9216C234.649 59.5856 234.001 59.4176 233.313 59.4176C232.641 59.4176 231.993 59.5856 231.369 59.9216C230.761 60.2576 230.265 60.7536 229.881 61.4096C229.497 62.0496 229.305 62.8496 229.305 63.8096C229.305 64.7536 229.497 65.5616 229.881 66.2336C230.265 66.8896 230.761 67.3856 231.369 67.7216C231.993 68.0576 232.641 68.2256 233.313 68.2256ZM256.029 76.8896C254.957 76.8896 253.965 76.7216 253.053 76.3856C252.157 76.0496 251.381 75.5536 250.725 74.8976C250.069 74.2416 249.573 73.4416 249.237 72.4976L251.733 71.4896C252.101 72.4176 252.677 73.1456 253.461 73.6736C254.245 74.2176 255.101 74.4896 256.029 74.4896C256.781 74.4896 257.437 74.3456 257.997 74.0576C258.573 73.7696 259.021 73.3376 259.341 72.7616C259.661 72.1856 259.821 71.4736 259.821 70.6256V67.5536C259.453 68.4976 258.861 69.2416 258.045 69.7856C257.229 70.3296 256.277 70.6016 255.189 70.6016C254.037 70.6016 252.989 70.3216 252.045 69.7616C251.117 69.1856 250.373 68.3936 249.813 67.3856C249.269 66.3616 248.997 65.1696 248.997 63.8096C248.997 62.4496 249.269 61.2656 249.813 60.2576C250.373 59.2336 251.117 58.4416 252.045 57.8816C252.989 57.3216 254.037 57.0416 255.189 57.0416C256.277 57.0416 257.229 57.3136 258.045 57.8576C258.861 58.3856 259.453 59.1216 259.821 60.0656V57.2096H262.581V70.5776C262.581 71.5056 262.429 72.3536 262.125 73.1216C261.837 73.8896 261.413 74.5536 260.853 75.1136C260.293 75.6736 259.605 76.1056 258.789 76.4096C257.989 76.7296 257.069 76.8896 256.029 76.8896ZM255.813 68.2256C256.501 68.2256 257.149 68.0576 257.757 67.7216C258.365 67.3856 258.861 66.8896 259.245 66.2336C259.629 65.5616 259.821 64.7536 259.821 63.8096C259.821 62.8496 259.629 62.0496 259.245 61.4096C258.861 60.7536 258.365 60.2576 257.757 59.9216C257.149 59.5856 256.501 59.4176 255.813 59.4176C255.141 59.4176 254.493 59.5856 253.869 59.9216C253.261 60.2576 252.765 60.7536 252.381 61.4096C251.997 62.0496 251.805 62.8496 251.805 63.8096C251.805 64.7536 251.997 65.5616 252.381 66.2336C252.765 66.8896 253.261 67.3856 253.869 67.7216C254.493 68.0576 255.141 68.2256 255.813 68.2256ZM266.247 70.4336V57.2096H268.983V70.4336H266.247ZM267.639 55.4576C267.063 55.4576 266.575 55.2736 266.175 54.9056C265.775 54.5376 265.575 54.0816 265.575 53.5376C265.575 52.9936 265.775 52.5376 266.175 52.1696C266.575 51.7856 267.063 51.5936 267.639 51.5936C268.199 51.5936 268.679 51.7856 269.079 52.1696C269.495 52.5376 269.703 52.9936 269.703 53.5376C269.703 54.0816 269.495 54.5376 269.079 54.9056C268.679 55.2736 268.199 55.4576 267.639 55.4576ZM273.05 70.4336V59.4416H271.49V57.2096H273.05V56.2736C273.05 55.5056 273.146 54.8496 273.338 54.3056C273.546 53.7616 273.85 53.3136 274.25 52.9616C274.666 52.5936 275.186 52.3296 275.81 52.1696C276.45 51.9936 277.202 51.9056 278.066 51.9056V54.1856C277.522 54.1856 277.082 54.2576 276.746 54.4016C276.41 54.5296 276.17 54.7456 276.026 55.0496C275.882 55.3536 275.81 55.7616 275.81 56.2736V57.2096H278.258V59.4416H275.81V70.4336H273.05ZM285.123 70.6016C284.115 70.6016 283.275 70.2576 282.603 69.5696C281.931 68.8816 281.595 67.9456 281.595 66.7616V59.4416H279.555V57.2096H287.571V59.4416H284.355V66.9296C284.355 67.3776 284.467 67.6976 284.691 67.8896C284.931 68.0816 285.187 68.1776 285.459 68.1776C285.699 68.1776 285.915 68.1376 286.107 68.0576C286.299 67.9776 286.483 67.8496 286.659 67.6736L288.075 69.3776C287.627 69.8096 287.171 70.1216 286.707 70.3136C286.243 70.5056 285.715 70.6016 285.123 70.6016ZM280.539 58.2416V57.2096C280.875 57.2096 281.131 57.1136 281.307 56.9216C281.499 56.7296 281.595 56.4656 281.595 56.1296V53.9216H284.355V55.6736C284.355 55.8976 284.299 56.1216 284.187 56.3456C284.075 56.5536 283.915 56.7376 283.707 56.8976C283.515 57.0416 283.299 57.1456 283.059 57.2096L280.539 58.2416ZM295.181 70.6016C294.253 70.6016 293.421 70.4416 292.685 70.1216C291.949 69.7856 291.341 69.3376 290.861 68.7776C290.381 68.2176 290.053 67.6096 289.877 66.9536L292.493 66.3776C292.653 66.9696 292.973 67.4416 293.453 67.7936C293.949 68.1296 294.509 68.2976 295.133 68.2976C295.933 68.2976 296.533 68.1536 296.933 67.8656C297.349 67.5616 297.557 67.1856 297.557 66.7376C297.557 66.3056 297.373 65.9696 297.005 65.7296C296.637 65.4896 296.157 65.2896 295.565 65.1296C294.989 64.9696 294.373 64.8016 293.717 64.6256C293.061 64.4496 292.437 64.2176 291.845 63.9296C291.269 63.6416 290.797 63.2576 290.429 62.7776C290.061 62.2816 289.877 61.6336 289.877 60.8336C289.877 60.1296 290.085 59.4896 290.501 58.9136C290.917 58.3376 291.501 57.8816 292.253 57.5456C293.021 57.2096 293.925 57.0416 294.965 57.0416C295.861 57.0416 296.653 57.1856 297.341 57.4736C298.029 57.7616 298.597 58.1696 299.045 58.6976C299.493 59.2096 299.797 59.8256 299.957 60.5456L297.341 61.2176C297.181 60.6096 296.901 60.1456 296.501 59.8256C296.101 59.5056 295.557 59.3456 294.869 59.3456C294.133 59.3456 293.573 59.4816 293.189 59.7536C292.821 60.0096 292.637 60.3616 292.637 60.8096C292.637 61.2416 292.821 61.5856 293.189 61.8416C293.557 62.0816 294.029 62.2896 294.605 62.4656C295.181 62.6256 295.789 62.7936 296.429 62.9696C297.085 63.1456 297.701 63.3776 298.277 63.6656C298.853 63.9376 299.325 64.3216 299.693 64.8176C300.061 65.2976 300.245 65.9296 300.245 66.7136C300.245 67.4016 300.037 68.0416 299.621 68.6336C299.221 69.2256 298.637 69.7056 297.869 70.0736C297.117 70.4256 296.221 70.6016 295.181 70.6016ZM309.513 70.4336V57.2096H312.249V70.4336H309.513ZM310.905 55.4576C310.329 55.4576 309.841 55.2736 309.441 54.9056C309.041 54.5376 308.841 54.0816 308.841 53.5376C308.841 52.9936 309.041 52.5376 309.441 52.1696C309.841 51.7856 310.329 51.5936 310.905 51.5936C311.465 51.5936 311.945 51.7856 312.345 52.1696C312.761 52.5376 312.969 52.9936 312.969 53.5376C312.969 54.0816 312.761 54.5376 312.345 54.9056C311.945 55.2736 311.465 55.4576 310.905 55.4576ZM321.26 70.6016C320.108 70.6016 319.06 70.3216 318.116 69.7616C317.188 69.1856 316.444 68.3936 315.884 67.3856C315.34 66.3616 315.068 65.1696 315.068 63.8096C315.068 62.4496 315.34 61.2656 315.884 60.2576C316.444 59.2336 317.188 58.4416 318.116 57.8816C319.06 57.3216 320.108 57.0416 321.26 57.0416C322.348 57.0416 323.3 57.3136 324.116 57.8576C324.932 58.3856 325.524 59.1216 325.892 60.0656V52.6736H328.652V70.4336H327.428C326.98 70.4336 326.612 70.2896 326.324 70.0016C326.036 69.7136 325.892 69.3456 325.892 68.8976V67.5536C325.524 68.4976 324.932 69.2416 324.116 69.7856C323.3 70.3296 322.348 70.6016 321.26 70.6016ZM321.884 68.2256C322.572 68.2256 323.22 68.0576 323.828 67.7216C324.436 67.3856 324.932 66.8896 325.316 66.2336C325.7 65.5616 325.892 64.7536 325.892 63.8096C325.892 62.8496 325.7 62.0496 325.316 61.4096C324.932 60.7536 324.436 60.2576 323.828 59.9216C323.22 59.5856 322.572 59.4176 321.884 59.4176C321.212 59.4176 320.564 59.5856 319.94 59.9216C319.332 60.2576 318.836 60.7536 318.452 61.4096C318.068 62.0496 317.876 62.8496 317.876 63.8096C317.876 64.7536 318.068 65.5616 318.452 66.2336C318.836 66.8896 319.332 67.3856 319.94 67.7216C320.564 68.0576 321.212 68.2256 321.884 68.2256ZM338.389 70.6016C337.317 70.6016 336.341 70.4336 335.461 70.0976C334.597 69.7616 333.853 69.2896 333.229 68.6816C332.621 68.0736 332.149 67.3696 331.813 66.5696C331.493 65.7536 331.333 64.8656 331.333 63.9056C331.333 62.8656 331.517 61.9296 331.885 61.0976C332.269 60.2496 332.781 59.5216 333.421 58.9136C334.077 58.3056 334.829 57.8416 335.677 57.5216C336.525 57.2016 337.413 57.0416 338.341 57.0416C339.173 57.0416 339.933 57.1536 340.621 57.3776C341.309 57.6016 341.901 57.9136 342.397 58.3136C342.909 58.7136 343.301 59.1776 343.573 59.7056C343.845 60.2336 343.981 60.8016 343.981 61.4096C343.981 62.2576 343.733 62.9616 343.237 63.5216C342.741 64.0816 342.093 64.5216 341.293 64.8416C340.493 65.1616 339.613 65.3776 338.653 65.4896C337.693 65.6016 336.741 65.6336 335.797 65.5856C335.637 65.5696 335.437 65.5616 335.197 65.5616C334.957 65.5456 334.741 65.5376 334.549 65.5376C334.373 65.5216 334.277 65.5136 334.261 65.5136C334.373 66.0416 334.621 66.5216 335.005 66.9536C335.405 67.3696 335.901 67.6976 336.493 67.9376C337.085 68.1776 337.717 68.2976 338.389 68.2976C338.933 68.2976 339.469 68.2016 339.997 68.0096C340.541 67.8176 341.037 67.5536 341.485 67.2176C341.933 66.8816 342.309 66.4976 342.613 66.0656L344.653 67.5296C344.125 68.2336 343.525 68.8176 342.853 69.2816C342.197 69.7296 341.493 70.0656 340.741 70.2896C339.989 70.4976 339.205 70.6016 338.389 70.6016ZM336.037 63.4016C336.629 63.4016 337.229 63.3776 337.837 63.3296C338.445 63.2656 339.005 63.1616 339.517 63.0176C340.045 62.8576 340.469 62.6416 340.789 62.3696C341.109 62.0976 341.269 61.7456 341.269 61.3136C341.269 60.9456 341.149 60.6176 340.909 60.3296C340.685 60.0256 340.365 59.7856 339.949 59.6096C339.533 59.4336 339.045 59.3456 338.485 59.3456C337.653 59.3456 336.909 59.5296 336.253 59.8976C335.597 60.2656 335.077 60.7536 334.693 61.3616C334.325 61.9696 334.125 62.6256 334.093 63.3296C334.317 63.3456 334.597 63.3616 334.933 63.3776C335.269 63.3936 335.637 63.4016 336.037 63.4016ZM352.385 70.6016C351.233 70.6016 350.185 70.3216 349.241 69.7616C348.313 69.1856 347.569 68.3936 347.009 67.3856C346.465 66.3616 346.193 65.1696 346.193 63.8096C346.193 62.4496 346.465 61.2656 347.009 60.2576C347.569 59.2336 348.313 58.4416 349.241 57.8816C350.185 57.3216 351.233 57.0416 352.385 57.0416C353.473 57.0416 354.425 57.3136 355.241 57.8576C356.057 58.3856 356.649 59.1216 357.017 60.0656V57.2096H359.777V70.4336H358.553C358.105 70.4336 357.737 70.2896 357.449 70.0016C357.161 69.7136 357.017 69.3456 357.017 68.8976V67.5536C356.649 68.4976 356.057 69.2416 355.241 69.7856C354.425 70.3296 353.473 70.6016 352.385 70.6016ZM353.009 68.2256C353.697 68.2256 354.345 68.0576 354.953 67.7216C355.561 67.3856 356.057 66.8896 356.441 66.2336C356.825 65.5616 357.017 64.7536 357.017 63.8096C357.017 62.8496 356.825 62.0496 356.441 61.4096C356.057 60.7536 355.561 60.2576 354.953 59.9216C354.345 59.5856 353.697 59.4176 353.009 59.4176C352.337 59.4176 351.689 59.5856 351.065 59.9216C350.457 60.2576 349.961 60.7536 349.577 61.4096C349.193 62.0496 349.001 62.8496 349.001 63.8096C349.001 64.7536 349.193 65.5616 349.577 66.2336C349.961 66.8896 350.457 67.3856 351.065 67.7216C351.689 68.0576 352.337 68.2256 353.009 68.2256ZM367.954 70.6016C367.026 70.6016 366.194 70.4416 365.458 70.1216C364.722 69.7856 364.114 69.3376 363.634 68.7776C363.154 68.2176 362.826 67.6096 362.65 66.9536L365.266 66.3776C365.426 66.9696 365.746 67.4416 366.226 67.7936C366.722 68.1296 367.282 68.2976 367.906 68.2976C368.706 68.2976 369.306 68.1536 369.706 67.8656C370.122 67.5616 370.33 67.1856 370.33 66.7376C370.33 66.3056 370.146 65.9696 369.778 65.7296C369.41 65.4896 368.93 65.2896 368.338 65.1296C367.762 64.9696 367.146 64.8016 366.49 64.6256C365.834 64.4496 365.21 64.2176 364.618 63.9296C364.042 63.6416 363.57 63.2576 363.202 62.7776C362.834 62.2816 362.65 61.6336 362.65 60.8336C362.65 60.1296 362.858 59.4896 363.274 58.9136C363.69 58.3376 364.274 57.8816 365.026 57.5456C365.794 57.2096 366.698 57.0416 367.738 57.0416C368.634 57.0416 369.426 57.1856 370.114 57.4736C370.802 57.7616 371.37 58.1696 371.818 58.6976C372.266 59.2096 372.57 59.8256 372.73 60.5456L370.114 61.2176C369.954 60.6096 369.674 60.1456 369.274 59.8256C368.874 59.5056 368.33 59.3456 367.642 59.3456C366.906 59.3456 366.346 59.4816 365.962 59.7536C365.594 60.0096 365.41 60.3616 365.41 60.8096C365.41 61.2416 365.594 61.5856 365.962 61.8416C366.33 62.0816 366.802 62.2896 367.378 62.4656C367.954 62.6256 368.562 62.7936 369.202 62.9696C369.858 63.1456 370.474 63.3776 371.05 63.6656C371.626 63.9376 372.098 64.3216 372.466 64.8176C372.834 65.2976 373.018 65.9296 373.018 66.7136C373.018 67.4016 372.81 68.0416 372.394 68.6336C371.994 69.2256 371.41 69.7056 370.642 70.0736C369.89 70.4256 368.994 70.6016 367.954 70.6016Z" fill="#212121"/>
</svg>
