<svg width="160" height="155" viewBox="0 0 160 155" fill="none" xmlns="http://www.w3.org/2000/svg">
<path d="M159.352 154.756H131.754V73.5044L86.3063 107.316H73.046L27.5984 73.5044V154.756H0V37.9648H27.4678L79.6762 79.357L131.574 37.9648H159.352V154.756Z" fill="#212121"/>
<path d="M115.245 154.757H110.281V60.2511L79.4 42.7911L48.5191 60.2511V154.757H43.5547V57.3656L79.4 37.1016L115.245 57.3656V154.757Z" fill="#EFB642"/>
<path d="M76.7986 40.4763C75.9331 36.5148 70.4134 34.9823 65.5306 33.6455C63.7343 33.1401 62.0196 32.6837 60.5825 32.0968C54.6872 29.7166 48.0081 27.0267 44.2031 20.4568C41.6719 16.0877 41.6719 10.4144 44.2031 6.02905C46.522 2.01862 50.4903 -0.19852 55.0628 0.0297152C67.3596 0.649211 73.3039 16.2344 75.2636 21.3697C76.7006 25.1356 78.0561 28.983 79.2808 32.7978C79.4768 33.4336 79.8034 34.1183 80.13 34.8356C80.8159 36.368 81.5998 38.0961 81.7141 39.7753L76.815 40.4926L76.7986 40.4763ZM54.4096 4.95307C51.0292 4.95307 49.2492 7.17022 48.4817 8.47442C46.8486 11.3111 46.8323 15.1259 48.4817 17.9462C51.4375 23.0489 57.0225 25.2986 62.4279 27.4832C63.62 27.9559 65.1877 28.3961 66.8371 28.8526C68.8947 29.4232 71.2299 30.059 73.4509 30.9882C72.5527 28.3472 71.6056 25.7062 70.6094 23.0978C66.1349 11.36 60.8111 5.24652 54.8015 4.95307H54.4096Z" fill="#EFB642"/>
<path d="M82.5515 40.4769L77.6523 39.7596C77.783 38.0804 78.5505 36.3523 79.2364 34.8199C79.563 34.1026 79.8733 33.4016 80.0856 32.7821C81.3104 28.9673 82.6658 25.1199 84.1029 21.354C86.0625 16.235 92.0068 0.633509 104.304 0.0140133C108.876 -0.19792 112.861 2.00292 115.163 6.01334C117.711 10.415 117.695 16.072 115.163 20.4411C111.358 27.011 104.679 29.7172 98.7839 32.0811C97.3468 32.668 95.6321 33.1408 93.8358 33.6298C88.953 34.9666 83.417 36.4991 82.5515 40.4606V40.4769ZM104.94 4.95368H104.549C98.539 5.26342 93.2152 11.3606 88.7407 23.1147C87.7445 25.7231 86.7974 28.3641 85.8992 31.0051C88.1038 30.0759 90.4554 29.4238 92.4967 28.8532C94.1624 28.3967 95.7301 27.9565 96.9222 27.4838C102.328 25.3155 107.896 23.0495 110.868 17.9468C112.518 15.1265 112.501 11.3117 110.868 8.47503C110.117 7.15452 108.321 4.93737 104.94 4.93737V4.95368Z" fill="#EFB642"/>
</svg>
